<svg xmlns="http://www.w3.org/2000/svg" viewBox="0 0 653.74 851.44"><defs><style>.cls-1{fill:#d18a63;}.cls-2{fill:#f1f2f2;}.cls-3{fill:#59aecf;}.cls-4{fill:none;stroke:#f1f2f2;stroke-linecap:round;stroke-linejoin:round;stroke-width:6px;stroke-dasharray:15.9;}</style></defs><g id="Layer_2" data-name="Layer 2"><g id="Capa_1" data-name="Capa 1"><path class="cls-1" d="M66,851.44,301.71,357.86a8.16,8.16,0,0,0-14.73-7L48,851.44Z"/><path class="cls-2" d="M480.46,594.17c-21.28-10.16-30.38-22.9-31-46.45a99.65,99.65,0,0,0,88.23-98.13A134.06,134.06,0,0,0,640.6,374.23c32-67.06,3.51-147.68-63.55-179.7a134.32,134.32,0,0,0-23.41-8.62c5-65.61-30.33-128-91.38-157.18a160.52,160.52,0,0,0-159.8,11.93A143.78,143.78,0,0,0,264.19,14c-71.26-34-156.92-3.74-190.95,67.53a142.88,142.88,0,0,0-12.95,78.9,91.69,91.69,0,0,0-9.94,168c-.71,3.84-1.37,8.17-2,13C42,391.51,68.14,439.24,118.22,469.1a244.27,244.27,0,0,0,33.89,17,187.2,187.2,0,0,0,70.6,13.18,117.83,117.83,0,0,0,108.42,57.86c.19.57.36,1.14.56,1.7,9.7,28.58,25.08,43.58,48.33,59.83A102.18,102.18,0,0,0,394.24,627h0c27.7,13.22,62.25,15,82.07,9.88a22.82,22.82,0,0,0,4.14-42.67ZM431,502.29a22.81,22.81,0,0,0-25.62,19.93c-2.16,18.34-2.87,40.69,5.2,61.85a51.59,51.59,0,0,1-4.41-2.76c-17.25-12-25.41-19.86-31.25-37.09a49.63,49.63,0,0,1-2.16-14A22.8,22.8,0,0,0,343.44,509a71.52,71.52,0,0,1-85.87-42.1,22.79,22.79,0,0,0-24.22-14.39c-5.47.72-8.7,1.09-9.79,1.2a140.23,140.23,0,0,1-54.51-9.9,198.38,198.38,0,0,1-27.47-13.86c-16.33-9.74-53.71-37.31-48-82.54.51-3.54,2.9-16.45,4.32-22a22.41,22.41,0,0,0,2.62-7.06,22.8,22.8,0,0,0-17.88-26.66,45.24,45.24,0,0,1-10.79-3.53,46.11,46.11,0,0,1,16.82-87.63A22.79,22.79,0,0,0,109,171.23,97.63,97.63,0,0,1,281.15,85.4a22.81,22.81,0,0,0,33.75,3.38A115.62,115.62,0,0,1,505.61,199.52,22.79,22.79,0,0,0,526,227.26a89.13,89.13,0,0,1-12.6,177.81A22.8,22.8,0,0,0,490.08,434,54,54,0,0,1,431,502.29Z"/><path class="cls-3" d="M428,524.89a76.84,76.84,0,0,0,84-97.06,111.93,111.93,0,0,0,15.82-223.29A138.42,138.42,0,0,0,299.54,71.92,120.42,120.42,0,0,0,87.14,177.78a68.85,68.85,0,0,0-9,136.27c-2-.37-6.9,28.26-7.14,30.24-5.73,45.27,21.11,82.7,58.89,105.22A222.54,222.54,0,0,0,160.58,465a162.49,162.49,0,0,0,64.1,11.51c1,0,6-.63,11.62-1.37a94.35,94.35,0,0,0,113.63,55.74,72,72,0,0,0,3.35,20.7c7.91,23.29,20,34.6,39.79,48.47,24.89,17.38,61.56,18.86,77.56,14.74C428.21,594.5,423.66,561.51,428,524.89Z"/><path class="cls-4" d="M357.29,515.41A16.73,16.73,0,0,1,360,517,17.13,17.13,0,0,1,367,530.38a55.45,55.45,0,0,0,2.45,15.67c6.33,18.63,15.42,27.38,33.4,39.94a71.23,71.23,0,0,0,19.21,9.09c-14-22.88-13.78-49.27-11.08-72.19a17.1,17.1,0,0,1,19.22-14.95,59.74,59.74,0,0,0,65.34-75.48,17.11,17.11,0,0,1,17.52-21.7A94.83,94.83,0,0,0,526.5,221.58a17.12,17.12,0,0,1-15.35-20.81A121.3,121.3,0,0,0,311.06,84.57,17.11,17.11,0,0,1,285.74,82a103.31,103.31,0,0,0-182.22,90.84,17.1,17.1,0,0,1-15.23,22,51.74,51.74,0,0,0-6.77,102.43,17.11,17.11,0,0,1,11.1,25.88c-1.5,5.43-4.14,19.67-4.68,23.4-6.15,48.68,33.42,77.94,50.71,88.26a205.45,205.45,0,0,0,28.27,14.26,146.1,146.1,0,0,0,57,10.31c1-.09,4.3-.48,10.19-1.25a17.13,17.13,0,0,1,18.18,10.79,77.18,77.18,0,0,0,92.79,45.51A17.15,17.15,0,0,1,357.29,515.41Z"/><path class="cls-2" d="M442.65,180.42c4.45-29.57-28.19-26.7-38.94-15.34C406.59,143.47,387,132,373.09,138.9a24.8,24.8,0,0,0-11.77,14.82,15.68,15.68,0,0,0-4.48.89,20.69,20.69,0,0,0-8.61,5.92,15.6,15.6,0,0,0-7.84-8.61,14,14,0,0,0-15.95,2.44c-3.71,4.09-5,9.37-3.86,15.29,2.3,11.63,13.6,23.49,20.7,26.88a8.35,8.35,0,0,0,3.4,1c5.28.43,13.31-4.91,19.21-10.84,4.94,14.06,13.18,25.89,18.39,27.59C395.38,219.86,439.44,201.86,442.65,180.42Zm-97.83,13.82a5.43,5.43,0,0,1-2.14-.65c-6.33-3-16.83-14.09-18.9-24.57-1-4.94.05-9.13,3-12.41A10.72,10.72,0,0,1,339,154.86c3.68,1.75,6.18,5.25,7.06,9.83a1.65,1.65,0,0,0,1.4,1.32,1.63,1.63,0,0,0,1.68-.93c1.41-3,5-6,8.82-7.4,6.47-2.33,11.39.61,12.73,8.31.8,4.55-2,10.71-7.66,16.89C357,189.47,348.89,194.57,344.82,194.24Z"/></g></g></svg>