<svg xmlns="http://www.w3.org/2000/svg" viewBox="0 0 221.47 663.34">
	<defs>
		<style>
			.cls-bottle1{isolation:isolate;}.cls-bottle2{fill:none;stroke:#617986;stroke-linecap:round;stroke-linejoin:round;stroke-width:14.97px;stroke-dasharray:0
			32.85;}.cls-bottle3{fill:#aedbe9;}.cls-bottle4{fill:#e7e3de;}.cls-bottle5{fill:#a2b9c0;}.cls-bottle10,.cls-bottle5{opacity:0.3;mix-blend-mode:screen;}.cls-bottle6{fill:#d8e3e5;}.cls-bottle6,.cls-bottle7,.cls-bottle9{mix-blend-mode:multiply;}.cls-bottle7{fill:#dce7ed;}.cls-bottle8{fill:#f5cb98;}.cls-bottle9{fill:#f5ecd6;}.cls-bottle10{fill:#c0c3bb;}.cls-bottle11{fill:#e1706c;}.cls-bottle12{fill:#e28179;}.cls-bottle13{fill:#7cbddc;}
		</style>
	</defs>
	<g class="cls-bottle1">
		<g id="Layer_2" data-name="Layer 2">
			<g id="Capa_1" data-name="Capa 1">
				<line class="cls-bottle2" x1="100.71" y1="402.71" x2="100.71" y2="7.48"/>
				<path class="cls-bottle3"
							d="M85.63,656c10.92,11,27.5,7.6,40.7,3.31,19-6.16,37.34-14.12,55.29-22.8,14.25-6.9,32.93-12,38.32-29,6.37-20.08-8.69-41-18.33-57-10-16.68-21.08-32.73-32.08-48.78-7-10.27-13.6-20.91-18.4-32.44s-6.86-24-10.71-35.88c-3.37-10.39-16.22-26.73-26.5-31.93a20,20,0,0,0-15.8-.53L48,422.51c-10.93,4.72-19,7.1-26.16,17s-12.38,34.42,1.09,53a125.75,125.75,0,0,1,15.68,30c7.7,20.93,8.42,36.28,15.85,57.31,2.75,7.8,8,22.63,10.48,30.51C69.89,625.84,73.68,644,85.63,656Z"/>
				<path class="cls-bottle4"
							d="M63.81,578.51a201.94,201.94,0,0,1-6.44-23.34,20.51,20.51,0,0,1,3.74-4c7.5-6.07,14.21-4.42,22.63-1.3,16.59,6.17,34.4,10.07,52,5.48,12.68-3.33,32.53-13,41.48-26.35,5.27,7.87,10.44,15.82,15.31,23.93,8.44,14,21.6,32.29,16,49.85-4.72,14.84-21.06,19.32-33.51,25.34A382.14,382.14,0,0,1,126.69,648c-11.54,3.75-26,6.68-35.59-2.9C80.66,634.64,77.34,618.8,73,605.19,70.76,598.3,66.22,585.33,63.81,578.51Z"/>
				<path class="cls-bottle5"
							d="M108.16,465.09a157.17,157.17,0,0,0,18-8.31,287.89,287.89,0,0,0,20.73,50.59c9,17.27,24.08,33.18,35,49.38,5.43,8.07,26.78,50.19,26.91,50.41-3.61,5-12.58,10.45-21.9,14.47-6.11-15.09-22.17-40.91-26.82-49.7-10.51-19.9-25.21-35.84-33.49-56.71C119.84,498.25,114.15,482.25,108.16,465.09Z"/>
				<path class="cls-bottle5"
							d="M100.71,442.42c6.67-2.22,12.27-6.57,18.91-10,1.5,4.47,2.83,9,4.13,13.54A94.63,94.63,0,0,1,105,455.36c-.45-1.29-.91-2.59-1.37-3.88C102.64,448.59,101.69,445.54,100.71,442.42Z"/>
				<path class="cls-bottle6"
							d="M103.75,435.93c-12,6.13-23.86,10.19-35.7,15.39a322.37,322.37,0,0,1-38.41,14.24c-5.07,1.46-9.45,3.1-15,2.49-.56-11.86,3-22.83,7.18-28.58C29,429.61,37,427.23,48,422.51l50.17-21.62a20,20,0,0,1,15.8.53c5.47,2.76,11.64,8.67,16.74,15.16C124.35,426.16,113.64,430.88,103.75,435.93Z"/>
				<path class="cls-bottle6"
							d="M85.26,472.4c11-5.27,28.52-15,37.4-19.85a108.48,108.48,0,0,0,19.6-13c.73,2.63,1.43,5.28,2.1,7.92C131.58,454.25,99.05,471.08,85.26,472.4Z"/>
				<path class="cls-bottle7"
							d="M64.89,610.27c-2.53-7.88-7.73-22.71-10.48-30.51-7.43-21-8.15-36.38-15.85-57.31a125.75,125.75,0,0,0-15.68-30c-13.47-18.59-8.18-43.27-1.09-53,.1-.14.2-.25.3-.38-1.16,11-3.36,24.38-1.18,35.24,2.79,14.05,12.29,21.85,18.71,34.5C51.88,533,56.17,558,66.29,585.59c7.2,19.63,10.1,44,24.81,59.54,7.16,7.56,23.56,14.55,36.41,13.75l-1.18.39c-13.2,4.29-29.78,7.65-40.7-3.31C73.68,644,69.89,625.84,64.89,610.27Z"/>
				<path class="cls-bottle8"
							d="M23.65,420c5.94-3.59,11.78-7,17.7-10.07a.54.54,0,0,0,0-.1c-3.44-13.36-17.89-19.37-23.13-31.53-9.08-21,20.36-32.73,31.73-23.33,11,9.13,8.67,22.19,9.32,32.44.31,4.81,2.51,8.69,4.84,12.3q3-1.11,6.17-2.1c9.17-2.93,13.76-4.8,25.62-7.2,3.4-.68,14.34-4,14.46.9.12,5.07-11.85,8.87-15.42,10.26-5.38,2.1-10.88,4.82-16.55,6.06a49.88,49.88,0,0,0-8.71,2.77,11.89,11.89,0,0,1,.29,3.17c-.29,6.13-14.46,14-22.47,9.57a7.23,7.23,0,0,1-1.35-1A170.38,170.38,0,0,1,28.05,430c-6.08,2.17-15.33,5.21-21.37,7.31C4.84,430.79,19,422.79,23.65,420Z"/>
				<path class="cls-bottle9"
							d="M11,430.33c-1.08.69-2.15,1.36-3.15,2.09,3.34-5.19,12.32-10.31,15.83-12.44,5.94-3.59,11.78-7,17.7-10.07a.54.54,0,0,0,0-.1c-3.44-13.36-17.89-19.37-23.13-31.53-3.43-8-1.35-14.59,3.18-19.23-6.41,14.79,3.11,25.37,14,34,12.79,10.22,13.11,17,5.64,21.13-8.21,4.52-14.61,6.94-22.58,11.26C15.83,427,13.5,428.72,11,430.33Z"/>
				<path class="cls-bottle10"
							d="M55,384.34c.41-.45.51-1.37.19-2.86-.78-3.81-1.7-7.61-2.63-11.39-1.12-4.45-2.88-10.21-7.09-12.72a15.49,15.49,0,0,0-8.94-1.59c-5.46.64-12.27,6.55-8,12.2,3.26,4.37,7.32,1.56,12.48,4,3.81,1.83,5.45,7.11,7.53,9.36C50.05,383.12,52.89,386.63,55,384.34Z"/>
				<path class="cls-bottle11"
							d="M2.64,452.3l.76,1.75c3.64,8.47,8.57,14.53,18,10.71a4.32,4.32,0,0,0,.45-.19l100.54-43.32c.25-.11.5-.22.73-.35,8.91-4.24,6.94-11.51,3.33-19.9l-.76-1.74c-3.66-8.48-7.65-15-17.13-11.09l-.38.15L7.6,431.68C-2.06,435.89-1,443.73,2.64,452.3Z"/>
				<path class="cls-bottle12"
							d="M115.59,424.18l6.82-2.93c.25-.11.5-.22.73-.35a182.63,182.63,0,0,0-14.56-32.73l-.38.15-7.21,3.1A174.6,174.6,0,0,1,115.59,424.18Z"/>
				<path class="cls-bottle12"
							d="M97.47,432l7.55-3.25A185.14,185.14,0,0,0,90.45,396l-7.6,3.27A175.78,175.78,0,0,1,97.47,432Z"/>
				<path class="cls-bottle12"
							d="M79.25,439.84l7.53-3.24C82.84,426,77,413.55,72.14,403.86l-7.55,3.25C69.44,416.82,75.37,429.39,79.25,439.84Z"/>
				<path class="cls-bottle12"
							d="M57.39,447.46l.66,1.52,7.53-3.24L65,444.25c-3.77-8.89-8.85-20.82-13.83-31.33l-7.55,3.25C48.53,426.61,53.62,438.56,57.39,447.46Z"/>
				<path class="cls-bottle12"
							d="M39.8,456.85l7.53-3.25c-5.12-11.19-10.49-23.32-13.93-33l-7.54,3.25C29.38,433.7,34.69,445.74,39.8,456.85Z"/>
				<path class="cls-bottle12"
							d="M21.42,464.76a4.32,4.32,0,0,0,.45-.19L29,461.51A176.16,176.16,0,0,1,15.2,428.4l-7.6,3.28A183.88,183.88,0,0,0,21.42,464.76Z"/>
				<path class="cls-bottle13" d="M35.17,493.24A78.22,78.22,0,0,1,47,487.75l-.9-2.68a81.07,81.07,0,0,0-12.4,5.74Z"/>
				<path class="cls-bottle13" d="M40.06,504.58A78.16,78.16,0,0,1,51.9,499.1L51,496.41a80.81,80.81,0,0,0-12.41,5.74Z"/>
				<path class="cls-bottle13"
							d="M44.94,515.92c1.17-.69,4.2-2.3,7.38-3.71,1.52-.68,3.08-1.31,4.47-1.77l-.89-2.69a81.54,81.54,0,0,0-12.4,5.74Z"/>
				<path class="cls-bottle13"
							d="M63.1,535c1.33-.58,2.64-1.19,3.77-1.8l-1.34-2.49a77.38,77.38,0,0,1-12.12,4.84l.77,2.73A90.22,90.22,0,0,0,63.1,535Z"/>
				<path class="cls-bottle13"
							d="M58.22,523.67c1.33-.58,2.64-1.19,3.77-1.8l-1.35-2.49a77.73,77.73,0,0,1-12.11,4.84l.76,2.73A89.23,89.23,0,0,0,58.22,523.67Z"/>
			</g>
		</g>
	</g>
</svg>
