<svg xmlns="http://www.w3.org/2000/svg" viewBox="0 0 604.65 310.15">
	<defs>
		<style>.cls-cloud-left1{isolation:isolate;}.cls-cloud-left2{fill:#f1f2f2;}.cls-cloud-left3{fill:#d2e6f1;mix-blend-mode:multiply;}</style>
	</defs>
	<g class="cls-cloud-left1">
		<g id="Layer_2" data-name="Layer 2">
			<g id="Capa_1" data-name="Capa 1">
				<path class="cls-cloud-left2"
							d="M117.47,250.3C88.6,275.78,16.29,260.93,5.3,218c-7.1-27.73-9.51-63.26,8.62-87.4,19.4-25.85,50.21-21.17,78.4-18.46-2.23-26.67-1.73-82,68.38-107.23,56.83-20.48,107.11,28.19,118.41,54.26C315,21.85,409.27,33.86,427.47,88.42c61.46-47.36,177.46-5.79,177.18,93.26C604.5,241.52,559.59,288.13,494.11,291c-17.27.76-35.87-.12-52.17-6.34-3.44-1.32-30.63-15.27-28.15-18.35,0,0-10.24,16-32.11,29.21C341.28,319.9,266.26,315.17,230.37,271,158.92,316.4,117.47,250.3,117.47,250.3Z"/>
				<path class="cls-cloud-left3"
							d="M572.76,103.31c20,62.53,11.64,100.74-19.12,126.41-33.26,27.77-86,35.7-126.56,16.49-5-2.35-17.22-12.19-20-12.52S395,249,385.75,257.29c-14.31,12.78-33.84,21.76-53.63,24.74-29.8,4.5-59.69-7.5-82.39-26.43-3.36-2.8-6.12-6.16-9.25-9.21-3.32-3.24-5.86-5.71-10.72-3.76-5.95,2.39-11.29,6.23-17.29,8.68-11.24,4.57-22.78,8.71-35.14,7a55.45,55.45,0,0,1-20.94-7.5C145,244,130,222.55,115.59,227c-14.2,4.38-27,16.82-42.35,16.1-54.44-2.57-79.46-54-65.15-103C-3.53,163.43-.92,193.7,5.3,218c11,42.94,83.3,57.79,112.17,32.31,0,0,41.45,66.1,112.9,20.65,35.89,44.22,110.91,48.95,151.31,24.61,21.87-13.19,32.1-29.2,32.11-29.21-2.48,3.08,24.71,17,28.15,18.35,16.3,6.22,34.9,7.1,52.17,6.34,65.48-2.91,110.39-49.52,110.54-109.36C604.75,148.85,592,122.37,572.76,103.31Z"/>
			</g>
		</g>
	</g>
</svg>
