<svg xmlns="http://www.w3.org/2000/svg" viewBox="0 0 707.52 851.44"><defs><style>.cls-1{fill:#d18a63;}.cls-2{fill:#f1f2f2;}.cls-3{fill:#f7b0bb;}.cls-4{fill:none;stroke:#f1f2f2;stroke-linecap:round;stroke-linejoin:round;stroke-width:6.05px;stroke-dasharray:16.03;}</style></defs><g id="Layer_2" data-name="Layer 2"><g id="Capa_1" data-name="Capa 1"><path class="cls-1" d="M600.81,851.44h18.28L375.9,350a8.23,8.23,0,1,0-14.81,7.17Z"/><path class="cls-2" d="M674.5,357.81c-21.39,10.37-37.14,9.52-56.07-4.82a100.44,100.44,0,0,0-21.82-131.23A135.14,135.14,0,0,0,602,93.31C569.26,25.9,487.81-2.35,420.4,30.35a135.19,135.19,0,0,0-21.52,13C350.34-1.84,278.94-13.26,217.58,16.5a161.81,161.81,0,0,0-91.12,133.4,145,145,0,0,0-45.1,13.36C9.74,198-20.28,284.54,14.46,356.18a144.23,144.23,0,0,0,54,59.83,92.43,92.43,0,0,0,126.11,113.5c2.59,3,5.57,6.22,9,9.75,35.47,36.49,89.49,45.94,144.52,25.27a246.93,246.93,0,0,0,34.74-16,188.72,188.72,0,0,0,54.79-47.32,118.77,118.77,0,0,0,113.78-49c.56.22,1.12.43,1.69.63,28.62,10.33,50.1,7.66,77.52-.45a101.71,101.71,0,0,0,15.46-6h0c27.83-13.49,50.94-39.61,59.39-58.43a23,23,0,0,0-31-30.1ZM571,339a23,23,0,0,0-.41,32.72c13.09,13.24,30.27,27.86,52,34.81q-2.52,1-4.94,1.74c-20.35,6-31.64,7.52-48.89,1.29a49.67,49.67,0,0,1-12.39-7.11,23,23,0,0,0-20-3.8,23.38,23.38,0,0,0-3.9,1.47,23,23,0,0,0-11.28,12.05A72.08,72.08,0,0,1,434,453.34a23,23,0,0,0-26.56,10c-2.87,4.76-4.62,7.54-5.22,8.47a141.41,141.41,0,0,1-42.09,36.72A200.33,200.33,0,0,1,332,521.49c-17.94,6.74-63.17,18.85-95.22-14.1-2.45-2.64-11.12-12.64-14.58-17.24A23,23,0,0,0,186,481a46.45,46.45,0,0,1-68-62.09,23,23,0,0,0-10.33-34.42,98.42,98.42,0,0,1,40.68-189.63,23,23,0,0,0,23.89-24.46,116.55,116.55,0,0,1,207.19-80.6,23,23,0,0,0,34.72,1.35A89.85,89.85,0,0,1,546.26,212.89a23,23,0,0,0,8.1,36.6A54.47,54.47,0,0,1,571,339Z"/><path class="cls-3" d="M586.92,355.57a77.45,77.45,0,0,0-23.61-127.25,112.84,112.84,0,0,0-166-152.92,139.54,139.54,0,0,0-248.07,96.46A121.4,121.4,0,0,0,99.06,405.78a69.41,69.41,0,0,0,101.7,92.8c-1.54,1.34,17.93,23.21,19.33,24.66,32.07,33,78.45,35.36,120,19.77a223.69,223.69,0,0,0,31.47-14.46,163.87,163.87,0,0,0,49.39-43.26c.61-.83,3.28-5.13,6.24-10A95.08,95.08,0,0,0,542.5,420.82a72.71,72.71,0,0,0,18.42,10.37c23.33,8.42,39.81,6.05,63.22-.86,29.33-8.67,53.57-36.63,60.39-51.83C641.9,399.17,613.06,382,586.92,355.57Z"/><path class="cls-4" d="M535,405.31a16.68,16.68,0,0,1,2.93-1.11,17.26,17.26,0,0,1,15,2.85A56.14,56.14,0,0,0,566.78,415c18.67,6.74,31.28,5.08,52.47-1.19a72.27,72.27,0,0,0,19.26-9.41c-26.82-3.4-47.5-20.14-63.85-36.69a17.2,17.2,0,0,1,.3-24.53,60.23,60.23,0,0,0-18.35-99,17.24,17.24,0,0,1-6.07-27.46A95.61,95.61,0,0,0,409.91,87.19a17.23,17.23,0,0,1-26-1,122.3,122.3,0,0,0-217.42,84.56,17.24,17.24,0,0,1-17.91,18.36A104.15,104.15,0,0,0,105.5,389.79a17.26,17.26,0,0,1,7.73,25.82,52.17,52.17,0,0,0,76.45,69.76,17.25,17.25,0,0,1,24.18,2,16.88,16.88,0,0,1,3.19,5.53c3.33,4.6,12.89,15.63,15.49,18.4C267,546.78,315,534,334,526.87a207,207,0,0,0,29-13.3,147.27,147.27,0,0,0,43.95-38.41c.55-.82,2.34-3.68,5.43-8.8a17.25,17.25,0,0,1,19.94-7.54,77.83,77.83,0,0,0,94.22-44.49A17.21,17.21,0,0,1,535,405.31Z"/><path class="cls-2" d="M324.76,127.35c-20.51-22.1-38.77,5.42-36.59,21-15.21-15.87-36.62-7.6-39.88,7.66a24.93,24.93,0,0,0,4.27,18.58,16.53,16.53,0,0,0-2.12,4.1,20.78,20.78,0,0,0-.75,10.5A15.84,15.84,0,0,0,238,190a14.16,14.16,0,0,0-8.11,14.11c.9,5.49,4.23,9.86,9.63,12.66,10.6,5.51,27.06,4.06,34.19.6a8.13,8.13,0,0,0,2.9-2.08c3.67-3.88,4.51-13.57,3.55-21.95,14.19,4.95,28.69,5.9,33.3,2.87C326.1,189.4,339.62,143.37,324.76,127.35ZM274.1,213.12a5.15,5.15,0,0,1-1.85,1.28c-6.36,3.08-21.69,4.4-31.25-.56-4.51-2.34-7.16-5.79-7.87-10.18A10.8,10.8,0,0,1,239.4,193c3.7-1.79,8-1.56,12.19.63a1.65,1.65,0,0,0,1.92-.28,1.63,1.63,0,0,0,.33-1.91c-1.51-3-1.62-7.69-.29-11.6,2.24-6.56,7.64-8.58,14.56-4.81,4.08,2.24,7.17,8.31,8.49,16.67C278,200.53,276.93,210.12,274.1,213.12Z"/></g></g></svg>